Coordinates
version=1
nRows=4
nColumns=63
inDegrees=yes

Units are S.I. units (second, meters, Newtons, ...)
If the header above contains a line with 'inDegrees', this indicates whether rotational values are in degrees (yes) or radians (no).

endheader
time	pelvis_tilt	pelvis_list	pelvis_rotation	pelvis_tx	pelvis_ty	pelvis_tz	hip_flexion_r	hip_adduction_r	hip_rotation_r	knee_angle_r	knee_angle_r_beta	ankle_angle_r	subtalar_angle_r	mtp_angle_r	hip_flexion_l	hip_adduction_l	hip_rotation_l	knee_angle_l	knee_angle_l_beta	ankle_angle_l	subtalar_angle_l	mtp_angle_l	L5_S1_Flex_Ext	L5_S1_Lat_Bending	L5_S1_axial_rotation	L4_L5_Flex_Ext	L4_L5_Lat_Bending	L4_L5_axial_rotation	L3_L4_Flex_Ext	L3_L4_Lat_Bending	L3_L4_axial_rotation	L2_L3_Flex_Ext	L2_L3_Lat_Bending	L2_L3_axial_rotation	L1_L2_Flex_Ext	L1_L2_Lat_Bending	L1_L2_axial_rotation	L1_T12_Flex_Ext	L1_T12_Lat_Bending	L1_T12_axial_rotation	Abs_r3	Abs_r2	Abs_r1	Abs_t1	Abs_t2	neck_flexion	neck_bending	neck_rotation	arm_flex_r	arm_add_r	arm_rot_r	elbow_flex_r	pro_sup_r	wrist_flex_r	wrist_dev_r	arm_flex_l	arm_add_l	arm_rot_l	elbow_flex_l	pro_sup_l	wrist_flex_l	wrist_dev_l
      3.18333333	     -2.89064569	     -9.77911557	     72.97009898	      0.28649159	      0.93765800	      0.63887752	      9.03123743	      0.50235345	     -3.59300169	      5.64825041	      0.09858057	     29.59760307	      5.23496886	      0.00000000	      6.41006561	     -0.74312140	      2.46620359	      7.60277428	      0.13269344	     33.36351592	    -11.19017206	      0.00000000	      0.11185235	     -0.26561406	     -2.81577543	      0.20772099	     -0.35326670	     -2.99176139	      0.18376222	     -0.64581403	     -2.99176139	      0.12783605	     -0.64581403	     -2.46380350	      0.10386609	     -0.54164019	     -2.28781753	      0.06391243	     -0.41143618	     -2.11183157	      0.79895012	     -3.00467939	    -15.66049819	      0.00000000	      0.00000000	     23.23095448	     -1.04639287	    -17.92068239	     39.60002459	     -9.25114346	     -8.25913304	    144.61371138	     89.15177475	     -1.09802809	      4.71682009	    -12.17522219	    -29.63397893	      8.06367038	    121.75516598	     44.14240624	     -3.00882627	     27.17180443
      3.20000000	     -2.75743366	     -9.70607135	     73.13541139	      0.28772101	      0.93730826	      0.63835395	      8.71442054	      0.64185166	     -3.52311616	      5.46151060	      0.09532134	     30.13526214	      5.23076009	      0.00000000	      6.28654399	     -0.92787788	      2.53675945	      7.58857130	      0.13244555	     33.54425759	    -11.03912451	      0.00000000	      0.10606031	     -0.25662845	     -2.85046126	      0.19696460	     -0.34131584	     -3.02861509	      0.17424648	     -0.62396641	     -3.02861509	      0.12121633	     -0.62396641	     -2.49415360	      0.09848760	     -0.52331673	     -2.31599977	      0.06060286	     -0.39751747	     -2.13784594	      0.75757818	     -2.90303234	    -15.85341038	      0.00000000	      0.00000000	     23.57187105	     -1.66035514	    -17.36362382	     37.59151818	     -8.97677816	    -10.69462762	    144.62973870	     89.10895567	     -1.72106620	      4.71634484	    -12.47837581	    -29.74636725	      7.72420241	    121.85933373	     44.32967733	     -2.97469451	     26.94208061
      3.21666667	     -2.79109170	     -9.59988599	     74.30333867	      0.28838968	      0.93711998	      0.63695335	      7.94077428	      0.53115795	     -3.77880135	      4.54096416	      0.07925478	     30.04766754	      4.60934023	      0.00000000	      6.14962886	     -0.91404720	      2.88952588	      7.41536767	      0.12942258	     33.79842674	     -9.59001258	      0.00000000	      0.11250614	     -0.29187624	     -2.89202767	      0.20893515	     -0.38819540	     -3.07277940	      0.18483634	     -0.70966789	     -3.07277940	      0.12858327	     -0.70966789	     -2.53052421	      0.10447320	     -0.59519403	     -2.34977248	      0.06428601	     -0.45211630	     -2.16902075	      0.80362011	     -3.30176240	    -16.08459029	      0.00000000	      0.00000000	     23.92674230	     -1.65745323	    -18.27028548	     34.16784678	     -9.23608756	    -14.40879000	    145.23504146	     88.96428970	     -2.98823348	      4.59559639	    -11.82549309	    -30.35699815	      8.77315991	    121.60353679	     46.74771747	     -2.56808980	     25.84561527
      3.23333333	     -2.79875969	     -9.59261242	     74.79897619	      0.28959456	      0.93654569	      0.63558684	      7.41658355	      0.51531830	     -3.56837099	      3.92817017	      0.06855950	     29.88623898	      4.48184003	      0.00000000	      5.95753081	     -0.97922508	      3.00037782	      7.10831480	      0.12406350	     33.87360496	     -8.99897754	      0.00000000	      0.14451952	     -0.29473787	     -2.88928702	      0.26838719	     -0.39200137	     -3.06986746	      0.23743111	     -0.71662567	     -3.06986746	      0.16517136	     -0.71662567	     -2.52812614	      0.13420082	     -0.60102947	     -2.34754570	      0.08257845	     -0.45654897	     -2.16696527	      1.03228846	     -3.33413379	    -16.06934763	      0.00000000	      0.00000000	     24.63320045	     -1.48098404	    -17.43455442	     30.57710575	     -9.46900095	    -17.02282429	    145.35265229	     88.44474512	     -4.74049705	      3.97598505	    -11.85121241	    -30.45065344	      8.95709183	    121.54350829	     47.91234606	     -2.33903917	     25.41716285
